{
	"asset":{
		"version":"2.0",
		"generator":"Maxon Cinema 4D 2024.1.0 (#200000219)"
	},
	"scenes":[{
		"nodes":[0,
		1]
	}],
	"nodes":[{
		"name":"Right",
		"translation":[-0.9008849263191223,
		0.3014426827430725,
		-0.17922525107860566],
		"rotation":[0.0,
		0.0,
		0.0,
		-1.0],
		"scale":[0.2840000092983246,
		0.2840000092983246,
		0.2840000092983246],
		"children":[2,
		3,
		4]
	},
	{
		"name":"Left",
		"translation":[-1.6155534982681275,
		0.3014426827430725,
		-0.17922525107860566],
		"rotation":[3.6246201352840846e-12,
		-0.00048648827942088246,
		-7.4505797087454088e-9,
		0.9999998807907105],
		"scale":[0.2840000092983246,
		0.2840000092983246,
		0.2840000092983246],
		"children":[5,
		6,
		7]
	},
	{
		"name":"Right",
		"translation":[0.2723797857761383,
		0.09349779039621353,
		0.03919313848018646],
		"rotation":[0.0,
		0.0,
		0.0,
		-1.0],
		"scale":[1.0,
		1.0,
		1.0],
		"children":[8,
		9]
	},
	{
		"name":"right secondary speaker",
		"mesh":0,
		"translation":[0.049000564962625507,
		0.8420186638832092,
		-0.5416930317878723],
		"rotation":[0.707825779914856,
		-8.659555971215124e-17,
		8.659555971215124e-17,
		0.7063870429992676],
		"scale":[1.0,
		1.0,
		1.0]
	},
	{
		"name":"rubber ear piece",
		"translation":[-0.30304428935050967,
		0.7405632138252258,
		-0.25577306747436526],
		"rotation":[0.38006138801574709,
		-0.3797949552536011,
		0.5961586833000183,
		0.5965768694877625],
		"scale":[0.6710901856422424,
		0.6710901856422424,
		0.6710901856422424],
		"children":[10]
	},
	{
		"name":"left secondary speaker",
		"mesh":1,
		"translation":[1.0663139820098878,
		0.8420186638832092,
		-0.5416930317878723],
		"rotation":[0.707825779914856,
		-8.659555971215124e-17,
		8.659555971215124e-17,
		0.7063870429992676],
		"scale":[1.0,
		1.0,
		1.0]
	},
	{
		"name":"rubber ear piece.1",
		"translation":[1.4648014307022095,
		0.7390406727790833,
		-0.2590380907058716],
		"rotation":[-0.3815295994281769,
		-0.37832000851631167,
		0.5938434600830078,
		-0.5988814830780029],
		"scale":[0.6710901856422424,
		0.6710901856422424,
		0.6710901856422424],
		"children":[11]
	},
	{
		"name":"Left",
		"translation":[0.2723797857761383,
		0.09349779039621353,
		0.03919313848018646],
		"rotation":[0.0,
		0.0,
		0.0,
		-1.0],
		"scale":[1.0,
		1.0,
		1.0],
		"children":[12,
		13]
	},
	{
		"name":"speaker.R",
		"translation":[-0.5771740674972534,
		0.6819848418235779,
		-0.32107245922088625],
		"rotation":[0.49999091029167178,
		0.47533196210861208,
		0.5172756910324097,
		-0.5064528584480286],
		"scale":[0.33824965357780459,
		0.33824965357780459,
		0.33824965357780459],
		"children":[14,
		15]
	},
	{
		"name":"ear 2",
		"children":[16]
	},
	{
		"name":"rubber ear piece",
		"mesh":2
	},
	{
		"name":"rubber ear piece.1",
		"mesh":3
	},
	{
		"name":"speaker.L",
		"translation":[1.1670105457305909,
		0.6825754046440125,
		-0.32050448656082156],
		"rotation":[0.49999091029167178,
		0.47533196210861208,
		0.5172756910324097,
		-0.5064528584480286],
		"scale":[0.3346630036830902,
		0.3346630036830902,
		0.3346630036830902],
		"children":[17,
		18]
	},
	{
		"name":"ear 1",
		"translation":[0.5837397575378418,
		7.148749625311932e-17,
		7.134872181611252e-17],
		"rotation":[0.0,
		0.0,
		1.0,
		-6.123234262925839e-17],
		"scale":[1.0,
		-1.0,
		1.0],
		"children":[19,
		20]
	},
	{
		"name":"Tube.1",
		"mesh":4,
		"translation":[5.684341759025859e-16,
		-1.976196952069043e-16,
		-0.2291838824748993],
		"rotation":[1.1102230246251566e-16,
		0.0,
		0.0,
		-1.0],
		"scale":[1.0,
		1.0,
		1.0]
	},
	{
		"name":"Tube",
		"mesh":5,
		"translation":[-2.8421708795129299e-16,
		5.484501805175744e-16,
		0.2291838824748993],
		"rotation":[1.1102230246251566e-16,
		0.0,
		0.0,
		-1.0],
		"scale":[1.0,
		1.0,
		1.0]
	},
	{
		"name":"ear 2",
		"children":[21,
		22]
	},
	{
		"name":"Tube.2",
		"mesh":6,
		"translation":[4.2632563192693947e-16,
		-5.195843564663319e-16,
		-0.2291838824748993],
		"rotation":[1.1102230246251566e-16,
		0.0,
		0.0,
		-1.0],
		"scale":[1.0,
		1.0,
		1.0]
	},
	{
		"name":"Tube.3",
		"mesh":7,
		"translation":[0.0,
		7.926992247592852e-16,
		0.2291838824748993],
		"rotation":[1.1102230246251566e-16,
		0.0,
		0.0,
		-1.0],
		"scale":[1.0,
		1.0,
		1.0]
	},
	{
		"name":"ear 1-earbuds",
		"mesh":8
	},
	{
		"name":"ear 1-airpods bottom",
		"mesh":9
	},
	{
		"name":"ear 2-earbuds",
		"mesh":10
	},
	{
		"name":"ear 2-airpods bottom",
		"mesh":11
	}],
	"meshes":[{
		"name":"right secondary speaker",
		"primitives":[{
			"attributes":{
				"POSITION":1,
				"NORMAL":2,
				"TEXCOORD_0":3
			},
			"indices":0,
			"material":0
		}]
	},
	{
		"name":"left secondary speaker",
		"primitives":[{
			"attributes":{
				"POSITION":5,
				"NORMAL":6,
				"TEXCOORD_0":7
			},
			"indices":4,
			"material":0
		}]
	},
	{
		"name":"rubber ear piece",
		"primitives":[{
			"attributes":{
				"POSITION":9,
				"NORMAL":10,
				"TEXCOORD_0":11
			},
			"indices":8,
			"material":1
		}]
	},
	{
		"name":"rubber ear piece.1",
		"primitives":[{
			"attributes":{
				"POSITION":13,
				"NORMAL":14,
				"TEXCOORD_0":15
			},
			"indices":12,
			"material":1
		}]
	},
	{
		"name":"Tube.1",
		"primitives":[{
			"attributes":{
				"POSITION":17,
				"NORMAL":18,
				"TEXCOORD_0":19
			},
			"indices":16
		}]
	},
	{
		"name":"Tube",
		"primitives":[{
			"attributes":{
				"POSITION":21,
				"NORMAL":22,
				"TEXCOORD_0":23
			},
			"indices":20
		}]
	},
	{
		"name":"Tube.2",
		"primitives":[{
			"attributes":{
				"POSITION":25,
				"NORMAL":26,
				"TEXCOORD_0":27
			},
			"indices":24
		}]
	},
	{
		"name":"Tube.3",
		"primitives":[{
			"attributes":{
				"POSITION":29,
				"NORMAL":30,
				"TEXCOORD_0":31
			},
			"indices":28
		}]
	},
	{
		"name":"ear 1-earbuds",
		"primitives":[{
			"attributes":{
				"POSITION":33,
				"NORMAL":34
			},
			"indices":32,
			"material":2
		}]
	},
	{
		"name":"ear 1-airpods bottom",
		"primitives":[{
			"attributes":{
				"POSITION":36,
				"NORMAL":37
			},
			"indices":35,
			"material":3
		}]
	},
	{
		"name":"ear 2-earbuds",
		"primitives":[{
			"attributes":{
				"POSITION":39,
				"NORMAL":40
			},
			"indices":38,
			"material":4
		}]
	},
	{
		"name":"ear 2-airpods bottom",
		"primitives":[{
			"attributes":{
				"POSITION":42,
				"NORMAL":43
			},
			"indices":41,
			"material":5
		}]
	}],
	"accessors":[{
		"bufferView":0,
		"type":"SCALAR",
		"componentType":5123,
		"count":192,
		"byteOffset":0,
		"min":[0],
		"max":[191]
	},
	{
		"bufferView":1,
		"type":"VEC3",
		"componentType":5126,
		"count":192,
		"byteOffset":0,
		"min":[-0.023528000339865686,
		-0.014999999664723874,
		-0.023528000339865686],
		"max":[0.023528000339865686,
		0.014999999664723874,
		0.023528000339865686]
	},
	{
		"bufferView":1,
		"type":"VEC3",
		"componentType":5126,
		"count":192,
		"byteOffset":12,
		"min":[-0.9978092312812805,
		-1.0,
		-0.9978092312812805],
		"max":[0.9978092312812805,
		1.0,
		0.9978092312812805]
	},
	{
		"bufferView":1,
		"type":"VEC2",
		"componentType":5126,
		"count":192,
		"byteOffset":24,
		"min":[0.0,
		0.0],
		"max":[1.0,
		1.0]
	},
	{
		"bufferView":2,
		"type":"SCALAR",
		"componentType":5123,
		"count":192,
		"byteOffset":0,
		"min":[0],
		"max":[191]
	},
	{
		"bufferView":3,
		"type":"VEC3",
		"componentType":5126,
		"count":192,
		"byteOffset":0,
		"min":[-0.023528145626187326,
		-0.014999999664723874,
		-0.023528145626187326],
		"max":[0.023528145626187326,
		0.014999999664723874,
		0.023528145626187326]
	},
	{
		"bufferView":3,
		"type":"VEC3",
		"componentType":5126,
		"count":192,
		"byteOffset":12,
		"min":[-0.9978092312812805,
		-1.0,
		-0.9978092312812805],
		"max":[0.9978092312812805,
		1.0,
		0.9978092312812805]
	},
	{
		"bufferView":3,
		"type":"VEC2",
		"componentType":5126,
		"count":192,
		"byteOffset":24,
		"min":[0.0,
		0.0],
		"max":[1.0,
		1.0]
	},
	{
		"bufferView":4,
		"type":"SCALAR",
		"componentType":5123,
		"count":8832,
		"byteOffset":0,
		"min":[0],
		"max":[8831]
	},
	{
		"bufferView":5,
		"type":"VEC3",
		"componentType":5126,
		"count":8832,
		"byteOffset":0,
		"min":[-0.3684838116168976,
		-0.044612616300582889,
		-0.3684838116168976],
		"max":[0.3684838116168976,
		0.46230465173721316,
		0.3684838116168976]
	},
	{
		"bufferView":5,
		"type":"VEC3",
		"componentType":5126,
		"count":8832,
		"byteOffset":12,
		"min":[-0.9998576045036316,
		-0.9991885423660278,
		-0.9998576045036316],
		"max":[0.9998576045036316,
		0.999111533164978,
		0.9998576045036316]
	},
	{
		"bufferView":5,
		"type":"VEC2",
		"componentType":5126,
		"count":8832,
		"byteOffset":24,
		"min":[0.0,
		0.0],
		"max":[1.0,
		1.0]
	},
	{
		"bufferView":6,
		"type":"SCALAR",
		"componentType":5123,
		"count":8832,
		"byteOffset":0,
		"min":[0],
		"max":[8831]
	},
	{
		"bufferView":7,
		"type":"VEC3",
		"componentType":5126,
		"count":8832,
		"byteOffset":0,
		"min":[-0.3684838116168976,
		-0.044612616300582889,
		-0.3684838116168976],
		"max":[0.3684838116168976,
		0.46230465173721316,
		0.3684838116168976]
	},
	{
		"bufferView":7,
		"type":"VEC3",
		"componentType":5126,
		"count":8832,
		"byteOffset":12,
		"min":[-0.9998576045036316,
		-0.9991885423660278,
		-0.9998576045036316],
		"max":[0.9998576045036316,
		0.999111533164978,
		0.9998576045036316]
	},
	{
		"bufferView":7,
		"type":"VEC2",
		"componentType":5126,
		"count":8832,
		"byteOffset":24,
		"min":[0.0,
		0.0],
		"max":[1.0,
		1.0]
	},
	{
		"bufferView":8,
		"type":"SCALAR",
		"componentType":5123,
		"count":7680,
		"byteOffset":0,
		"min":[0],
		"max":[7679]
	},
	{
		"bufferView":9,
		"type":"VEC3",
		"componentType":5126,
		"count":7680,
		"byteOffset":0,
		"min":[-0.20758368074893952,
		-0.10432247817516327,
		-0.20758368074893952],
		"max":[0.20758365094661714,
		0.10432247817516327,
		0.20758368074893952]
	},
	{
		"bufferView":9,
		"type":"VEC3",
		"componentType":5126,
		"count":7680,
		"byteOffset":12,
		"min":[-1.0,
		-0.9109766483306885,
		-1.0],
		"max":[1.0,
		0.9109766483306885,
		1.0]
	},
	{
		"bufferView":9,
		"type":"VEC2",
		"componentType":5126,
		"count":7680,
		"byteOffset":24,
		"min":[0.0,
		0.0],
		"max":[1.0,
		1.0]
	},
	{
		"bufferView":10,
		"type":"SCALAR",
		"componentType":5123,
		"count":4992,
		"byteOffset":0,
		"min":[0],
		"max":[4991]
	},
	{
		"bufferView":11,
		"type":"VEC3",
		"componentType":5126,
		"count":4992,
		"byteOffset":0,
		"min":[-0.20758368074893952,
		-0.10432247817516327,
		-0.20758368074893952],
		"max":[0.20758365094661714,
		0.10432247817516327,
		0.20758368074893952]
	},
	{
		"bufferView":11,
		"type":"VEC3",
		"componentType":5126,
		"count":4992,
		"byteOffset":12,
		"min":[-1.0,
		-1.0,
		-1.0],
		"max":[1.0,
		1.0,
		1.0]
	},
	{
		"bufferView":11,
		"type":"VEC2",
		"componentType":5126,
		"count":4992,
		"byteOffset":24,
		"min":[0.0,
		0.0],
		"max":[1.0,
		1.0]
	},
	{
		"bufferView":12,
		"type":"SCALAR",
		"componentType":5123,
		"count":7680,
		"byteOffset":0,
		"min":[0],
		"max":[7679]
	},
	{
		"bufferView":13,
		"type":"VEC3",
		"componentType":5126,
		"count":7680,
		"byteOffset":0,
		"min":[-0.20758368074893952,
		-0.10432247817516327,
		-0.20758368074893952],
		"max":[0.20758365094661714,
		0.10432247817516327,
		0.20758368074893952]
	},
	{
		"bufferView":13,
		"type":"VEC3",
		"componentType":5126,
		"count":7680,
		"byteOffset":12,
		"min":[-1.0,
		-0.9109766483306885,
		-1.0],
		"max":[1.0,
		0.9109766483306885,
		1.0]
	},
	{
		"bufferView":13,
		"type":"VEC2",
		"componentType":5126,
		"count":7680,
		"byteOffset":24,
		"min":[0.0,
		0.0],
		"max":[1.0,
		1.0]
	},
	{
		"bufferView":14,
		"type":"SCALAR",
		"componentType":5123,
		"count":4992,
		"byteOffset":0,
		"min":[0],
		"max":[4991]
	},
	{
		"bufferView":15,
		"type":"VEC3",
		"componentType":5126,
		"count":4992,
		"byteOffset":0,
		"min":[-0.20758368074893952,
		-0.10432247817516327,
		-0.20758368074893952],
		"max":[0.20758365094661714,
		0.10432247817516327,
		0.20758368074893952]
	},
	{
		"bufferView":15,
		"type":"VEC3",
		"componentType":5126,
		"count":4992,
		"byteOffset":12,
		"min":[-1.0,
		-1.0,
		-1.0],
		"max":[1.0,
		1.0,
		1.0]
	},
	{
		"bufferView":15,
		"type":"VEC2",
		"componentType":5126,
		"count":4992,
		"byteOffset":24,
		"min":[0.0,
		0.0],
		"max":[1.0,
		1.0]
	},
	{
		"bufferView":16,
		"type":"SCALAR",
		"componentType":5123,
		"count":8352,
		"byteOffset":0,
		"min":[0],
		"max":[8351]
	},
	{
		"bufferView":17,
		"type":"VEC3",
		"componentType":5126,
		"count":8352,
		"byteOffset":0,
		"min":[-0.6424404382705689,
		-0.69759202003479,
		-0.5957859754562378],
		"max":[0.13225382566452027,
		1.0204991102218629,
		0.1326398402452469]
	},
	{
		"bufferView":17,
		"type":"VEC3",
		"componentType":5126,
		"count":8352,
		"byteOffset":12,
		"min":[-0.9999843835830689,
		-1.0,
		-0.9999743700027466],
		"max":[0.9999724626541138,
		0.9999175667762756,
		0.9999191164970398]
	},
	{
		"bufferView":18,
		"type":"SCALAR",
		"componentType":5123,
		"count":3192,
		"byteOffset":0,
		"min":[0],
		"max":[3191]
	},
	{
		"bufferView":19,
		"type":"VEC3",
		"componentType":5126,
		"count":3192,
		"byteOffset":0,
		"min":[-0.12830737233161927,
		-0.7600792050361633,
		-0.12930232286453248],
		"max":[0.1307811141014099,
		-0.697641134262085,
		0.13116714358329774]
	},
	{
		"bufferView":19,
		"type":"VEC3",
		"componentType":5126,
		"count":3192,
		"byteOffset":12,
		"min":[-0.9999712705612183,
		-1.0,
		-0.999923050403595],
		"max":[0.9999912977218628,
		1.0,
		0.9999650120735169]
	},
	{
		"bufferView":20,
		"type":"SCALAR",
		"componentType":5123,
		"count":2088,
		"byteOffset":0,
		"min":[0],
		"max":[2087]
	},
	{
		"bufferView":21,
		"type":"VEC3",
		"componentType":5126,
		"count":2088,
		"byteOffset":0,
		"min":[-0.6424863338470459,
		-0.6975952982902527,
		-0.6089772582054138],
		"max":[0.13711731135845185,
		1.0335220098495484,
		0.13754037022590638]
	},
	{
		"bufferView":21,
		"type":"VEC3",
		"componentType":5126,
		"count":2088,
		"byteOffset":12,
		"min":[-0.9999996423721314,
		-1.0,
		-0.9999651312828064],
		"max":[0.9999697208404541,
		0.998146653175354,
		0.9999112486839294]
	},
	{
		"bufferView":22,
		"type":"SCALAR",
		"componentType":5123,
		"count":798,
		"byteOffset":0,
		"min":[0],
		"max":[797]
	},
	{
		"bufferView":23,
		"type":"VEC3",
		"componentType":5126,
		"count":798,
		"byteOffset":0,
		"min":[-0.1330096274614334,
		-0.7600808143615723,
		-0.1340404599905014],
		"max":[0.13565047085285188,
		-0.6976408362388611,
		0.13603413105010987]
	},
	{
		"bufferView":23,
		"type":"VEC3",
		"componentType":5126,
		"count":798,
		"byteOffset":12,
		"min":[-0.9999688267707825,
		-1.0,
		-0.9999118447303772],
		"max":[0.999988317489624,
		1.0,
		0.9999609589576721]
	}],
	"bufferViews":[{
		"buffer":0,
		"byteOffset":0,
		"byteLength":384,
		"target":34963
	},
	{
		"buffer":0,
		"byteOffset":384,
		"byteLength":6144,
		"target":34962,
		"byteStride":32
	},
	{
		"buffer":1,
		"byteOffset":0,
		"byteLength":384,
		"target":34963
	},
	{
		"buffer":1,
		"byteOffset":384,
		"byteLength":6144,
		"target":34962,
		"byteStride":32
	},
	{
		"buffer":2,
		"byteOffset":0,
		"byteLength":17664,
		"target":34963
	},
	{
		"buffer":2,
		"byteOffset":17664,
		"byteLength":282624,
		"target":34962,
		"byteStride":32
	},
	{
		"buffer":3,
		"byteOffset":0,
		"byteLength":17664,
		"target":34963
	},
	{
		"buffer":3,
		"byteOffset":17664,
		"byteLength":282624,
		"target":34962,
		"byteStride":32
	},
	{
		"buffer":4,
		"byteOffset":0,
		"byteLength":15360,
		"target":34963
	},
	{
		"buffer":4,
		"byteOffset":15360,
		"byteLength":245760,
		"target":34962,
		"byteStride":32
	},
	{
		"buffer":5,
		"byteOffset":0,
		"byteLength":9984,
		"target":34963
	},
	{
		"buffer":5,
		"byteOffset":9984,
		"byteLength":159744,
		"target":34962,
		"byteStride":32
	},
	{
		"buffer":6,
		"byteOffset":0,
		"byteLength":15360,
		"target":34963
	},
	{
		"buffer":6,
		"byteOffset":15360,
		"byteLength":245760,
		"target":34962,
		"byteStride":32
	},
	{
		"buffer":7,
		"byteOffset":0,
		"byteLength":9984,
		"target":34963
	},
	{
		"buffer":7,
		"byteOffset":9984,
		"byteLength":159744,
		"target":34962,
		"byteStride":32
	},
	{
		"buffer":8,
		"byteOffset":0,
		"byteLength":16704,
		"target":34963
	},
	{
		"buffer":8,
		"byteOffset":16704,
		"byteLength":200448,
		"target":34962,
		"byteStride":24
	},
	{
		"buffer":9,
		"byteOffset":0,
		"byteLength":6384,
		"target":34963
	},
	{
		"buffer":9,
		"byteOffset":6384,
		"byteLength":76608,
		"target":34962,
		"byteStride":24
	},
	{
		"buffer":10,
		"byteOffset":0,
		"byteLength":4176,
		"target":34963
	},
	{
		"buffer":10,
		"byteOffset":4176,
		"byteLength":50112,
		"target":34962,
		"byteStride":24
	},
	{
		"buffer":11,
		"byteOffset":0,
		"byteLength":1596,
		"target":34963
	},
	{
		"buffer":11,
		"byteOffset":1596,
		"byteLength":19152,
		"target":34962,
		"byteStride":24
	}],
	"buffers":[{
		"uri":"data:application/octet-stream;base64,",
		"byteLength":6528
	},
	{
		"uri":"data:application/octet-stream;base64,",
		"byteLength":6528
	},
	{
		"uri":"data:application/octet-stream;base64,",
		"byteLength":300288
	},
	{
		"uri":"data:application/octet-stream;base64,",
		"byteLength":300288
	},
	{
		"uri":"data:application/octet-stream;base64,",
		"byteLength":261120
	},
	{
		"uri":"data:application/octet-stream;base64,",
		"byteLength":169728
	},
	{
		"uri":"data:application/octet-stream;base64,",
		"byteLength":261120
	},
	{
		"uri":"data:application/octet-stream;base64,",
		"byteLength":169728
	},
	{
		"uri":"data:application/octet-stream;base64,",
		"byteLength":217152
	},
	{
		"uri":"data:application/octet-stream;base64,",
		"byteLength":82992
	},
	{
		"uri":"data:application/octet-stream;base64,",
		"byteLength":54288
	},
	{
		"uri":"data:application/octet-stream;base64,",
		"byteLength":20748
	}],
	"materials":[{
		"pbrMetallicRoughness":{
			"baseColorFactor":[0.0,
			0.0,
			0.0,
			1.0],
			"metallicFactor":0.0,
			"roughnessFactor":0.7700000000000002
		},
		"emissiveFactor":[0.0,
		0.0,
		0.0],
		"alphaMode":"OPAQUE",
		"doubleSided":true,
		"name":"Mat.2"
	},
	{
		"pbrMetallicRoughness":{
			"baseColorFactor":[0.8,
			0.8,
			0.8,
			1.0],
			"metallicFactor":0.36,
			"roughnessFactor":0.61
		},
		"emissiveFactor":[0.0,
		0.0,
		0.0],
		"alphaMode":"OPAQUE",
		"doubleSided":true,
		"name":"earpiece"
	},
	{
		"pbrMetallicRoughness":{
			"baseColorFactor":[1.0,
			1.0,
			1.0,
			1.0],
			"metallicFactor":1.0,
			"roughnessFactor":1.0
		},
		"emissiveFactor":[0.0,
		0.0,
		0.0],
		"alphaMode":"OPAQUE",
		"doubleSided":true,
		"name":""
	},
	{
		"pbrMetallicRoughness":{
			"baseColorFactor":[1.0,
			1.0,
			1.0,
			1.0],
			"metallicFactor":1.0,
			"roughnessFactor":1.0
		},
		"emissiveFactor":[0.0,
		0.0,
		0.0],
		"alphaMode":"OPAQUE",
		"doubleSided":true,
		"name":""
	},
	{
		"pbrMetallicRoughness":{
			"baseColorFactor":[1.0,
			1.0,
			1.0,
			1.0],
			"metallicFactor":1.0,
			"roughnessFactor":1.0
		},
		"emissiveFactor":[0.0,
		0.0,
		0.0],
		"alphaMode":"OPAQUE",
		"doubleSided":true,
		"name":""
	},
	{
		"pbrMetallicRoughness":{
			"baseColorFactor":[1.0,
			1.0,
			1.0,
			1.0],
			"metallicFactor":1.0,
			"roughnessFactor":1.0
		},
		"emissiveFactor":[0.0,
		0.0,
		0.0],
		"alphaMode":"OPAQUE",
		"doubleSided":true,
		"name":""
	}]
}